<mxfile host="app.diagrams.net" modified="2022-02-20T13:57:56.845Z" agent="5.0 (Windows NT 10.0; Win64; x64) AppleWebKit/537.36 (KHTML, like Gecko) Chrome/98.0.4758.102 Safari/537.36" etag="GGBVB8Gngriw2YmtUCj9" version="16.6.1" type="github">
  <diagram id="kgpKYQtTHZ0yAKxKKP6v" name="Page-1">
    <mxGraphModel dx="776" dy="453" grid="1" gridSize="10" guides="1" tooltips="1" connect="1" arrows="1" fold="1" page="1" pageScale="1" pageWidth="850" pageHeight="1100" math="0" shadow="0">
      <root>
        <mxCell id="0" />
        <mxCell id="1" parent="0" />
        <mxCell id="V2nO1XTjcheqHhTM1LC8-11" style="edgeStyle=orthogonalEdgeStyle;rounded=0;orthogonalLoop=1;jettySize=auto;html=1;exitX=1;exitY=0.5;exitDx=0;exitDy=0;entryX=0;entryY=0.5;entryDx=0;entryDy=0;" edge="1" parent="1" source="V2nO1XTjcheqHhTM1LC8-1" target="V2nO1XTjcheqHhTM1LC8-2">
          <mxGeometry relative="1" as="geometry" />
        </mxCell>
        <mxCell id="V2nO1XTjcheqHhTM1LC8-1" value="C - Program" style="rounded=0;whiteSpace=wrap;html=1;" vertex="1" parent="1">
          <mxGeometry x="40" y="60" width="120" height="60" as="geometry" />
        </mxCell>
        <mxCell id="V2nO1XTjcheqHhTM1LC8-9" style="edgeStyle=orthogonalEdgeStyle;rounded=0;orthogonalLoop=1;jettySize=auto;html=1;exitX=1;exitY=0.5;exitDx=0;exitDy=0;entryX=0;entryY=0.5;entryDx=0;entryDy=0;" edge="1" parent="1" source="V2nO1XTjcheqHhTM1LC8-2" target="V2nO1XTjcheqHhTM1LC8-3">
          <mxGeometry relative="1" as="geometry" />
        </mxCell>
        <mxCell id="V2nO1XTjcheqHhTM1LC8-2" value="Compile&amp;nbsp;" style="rounded=0;whiteSpace=wrap;html=1;" vertex="1" parent="1">
          <mxGeometry x="210" y="60" width="120" height="60" as="geometry" />
        </mxCell>
        <mxCell id="V2nO1XTjcheqHhTM1LC8-3" value="Run / Execute" style="rounded=0;whiteSpace=wrap;html=1;" vertex="1" parent="1">
          <mxGeometry x="400" y="60" width="120" height="60" as="geometry" />
        </mxCell>
        <mxCell id="V2nO1XTjcheqHhTM1LC8-4" value="&lt;h1&gt;Compile&lt;/h1&gt;&lt;p&gt;Convert high level --&amp;gt; Low level&amp;nbsp;&lt;/p&gt;&lt;p&gt;Human --&amp;gt; Binary&amp;nbsp;&lt;span&gt;Language Machine&lt;/span&gt;&lt;/p&gt;" style="text;html=1;strokeColor=none;fillColor=none;spacing=5;spacingTop=-20;whiteSpace=wrap;overflow=hidden;rounded=0;" vertex="1" parent="1">
          <mxGeometry x="210" y="120" width="190" height="120" as="geometry" />
        </mxCell>
        <mxCell id="V2nO1XTjcheqHhTM1LC8-5" value="&lt;h1&gt;Code&lt;/h1&gt;&lt;p&gt;Java&lt;/p&gt;&lt;p&gt;&lt;span&gt;.net&lt;/span&gt;&lt;/p&gt;&lt;p&gt;&lt;span&gt;Php&lt;/span&gt;&lt;br&gt;&lt;/p&gt;&lt;p&gt;&lt;span&gt;Nodejs&lt;/span&gt;&lt;/p&gt;&lt;p&gt;&lt;br&gt;&lt;/p&gt;" style="text;html=1;strokeColor=none;fillColor=none;spacing=5;spacingTop=-20;whiteSpace=wrap;overflow=hidden;rounded=0;" vertex="1" parent="1">
          <mxGeometry x="30" y="120" width="190" height="120" as="geometry" />
        </mxCell>
        <mxCell id="V2nO1XTjcheqHhTM1LC8-7" value="&lt;h1&gt;Build Process&lt;/h1&gt;&lt;p&gt;Converting raw code to a format which can be deployed on machines.&amp;nbsp;&lt;/p&gt;" style="text;html=1;strokeColor=none;fillColor=none;spacing=5;spacingTop=-20;whiteSpace=wrap;overflow=hidden;rounded=0;" vertex="1" parent="1">
          <mxGeometry x="20" y="270" width="540" height="120" as="geometry" />
        </mxCell>
        <mxCell id="V2nO1XTjcheqHhTM1LC8-10" value="&lt;h1&gt;Executable/Deployable&lt;/h1&gt;&lt;p&gt;.tar&lt;/p&gt;&lt;p&gt;.jar&lt;/p&gt;&lt;p&gt;.out&amp;nbsp;&lt;/p&gt;&lt;p&gt;.exe&lt;/p&gt;&lt;p&gt;.zip&amp;nbsp;&lt;/p&gt;" style="text;html=1;strokeColor=none;fillColor=none;spacing=5;spacingTop=-20;whiteSpace=wrap;overflow=hidden;rounded=0;" vertex="1" parent="1">
          <mxGeometry x="480" y="130" width="190" height="120" as="geometry" />
        </mxCell>
      </root>
    </mxGraphModel>
  </diagram>
</mxfile>
